<svg id="Camada_1" data-name="Camada 1" xmlns="http://www.w3.org/2000/svg" viewBox="0 0 55.13 55.12"><defs><style>.cls-1{fill:#e6e6e6;}.cls-2{fill:#351808;}.cls-3{fill:#ff7f60;}.cls-4{fill:#013256;}.cls-5{fill:#002a4f;}.cls-6{fill:#ef6e54;}.cls-7{fill:#ba7959;}.cls-8{fill:#d4145a;}.cls-9{fill:#fff;}.cls-10{fill:#39b54a;}.cls-11{fill:#af5f46;}</style></defs><path class="cls-1" d="M64.53,70A27.41,27.41,0,0,1,50.61,86.21c-.64.33-1.28.62-1.94.89l-.37.16-.3.1a26.18,26.18,0,0,1-2.72.89s0,0-.07,0l-.4.11s0,0,0,0h-.07a5.83,5.83,0,0,1-.7.15c-.54.11-1.06.22-1.61.29l-.53.07h-.06l-.1,0-.39,0h0l-.56.07-.86,0-.45,0c-.3,0-.58,0-.87,0h-.71c-.25,0-.51,0-.77,0l-.77,0-.48,0-.27,0-1.16-.15-.77-.11a.64.64,0,0,1-.23,0c-.77-.14-1.52-.31-2.28-.5a.28.28,0,0,0-.13,0l-1.3-.39-.22-.07c-.51-.17-1-.35-1.49-.56s-.84-.34-1.25-.53l-.58-.28a1.55,1.55,0,0,1-.29-.14L25.59,86a.5.5,0,0,1-.14-.08h0a13.22,13.22,0,0,1-1.27-.71c-.33-.2-.67-.41-1-.63s-.63-.42-.93-.64l0,0c-.52-.36-1-.75-1.48-1.15s-.81-.69-1.21-1.05-.67-.66-1-1l0,0a16.46,16.46,0,0,1-1.26-1.39c-.05,0-.07-.06-.11-.1a28.36,28.36,0,0,1-2-2.66l-.52-.87s0,0,0,0h0a1.14,1.14,0,0,1-.12-.22A27.55,27.55,0,1,1,64.53,70Z" transform="translate(-10.73 -34)"/><path class="cls-2" d="M39.85,45.45h0a2.83,2.83,0,0,1,4.9,2.34h0A2.83,2.83,0,0,0,48.14,51h0a2.83,2.83,0,0,1,2.6,4.77h0a2.83,2.83,0,0,0,.85,4.59h0a2.83,2.83,0,0,1-.71,5.38h0a2.83,2.83,0,0,0-2,4.22h0a2.83,2.83,0,0,1-3.74,3.94h0c-1.77-.91-8.85.82-10.13.65-3.16-.41-10.28-4-12.23-3.57h0a2.83,2.83,0,0,1-2.59-4.77h0a2.83,2.83,0,0,0-.86-4.59h0a2.83,2.83,0,0,1,.7-5.38h0a2.83,2.83,0,0,0,2-4.22h0a2.83,2.83,0,0,1,3.73-3.94h0a2.83,2.83,0,0,0,4.1-2.23h0a2.83,2.83,0,0,1,5.34-1h0A2.83,2.83,0,0,0,39.85,45.45Z" transform="translate(-10.73 -34)"/><path class="cls-3" d="M50.61,86.21c-.64.33-1.28.62-1.94.89l-.37.16-.3.1a26.18,26.18,0,0,1-2.72.89s0,0-.07,0l-.4.11s0,0,0,0h-.07c-.24.05-.46.11-.7.14-.54.11-1.06.22-1.61.29l-.53.07h-.06l-.1,0-.39,0h0l-.56.07-.86,0-.45,0c-.3,0-.58,0-.87,0h-.71l-.52,0h-.25l-.77,0L35.84,89l-.27,0c-.38,0-.77-.08-1.16-.14l-.77-.11a.64.64,0,0,1-.23,0c-.77-.14-1.52-.31-2.28-.5a.28.28,0,0,0-.13,0l-1.3-.39-.22-.07c-.51-.17-1-.35-1.49-.56s-.84-.35-1.25-.54l-.58-.27-.29-.15L25.59,86a.5.5,0,0,1-.14-.08h0a13.22,13.22,0,0,1-1.27-.71c-.33-.2-.67-.41-1-.63s-.63-.42-.93-.64l0,0c-.52-.36-1-.75-1.48-1.15s-.81-.69-1.21-1.05-.67-.66-1-1l0,0a16.46,16.46,0,0,1-1.26-1.39c-.05,0-.07-.06-.11-.1a28.36,28.36,0,0,1-2-2.66,21.23,21.23,0,0,1,4.68-4.06A21.57,21.57,0,0,1,22.65,71h0a20.49,20.49,0,0,1,3-1c.49-.12,1-.24,1.49-.32l.82-.12.57-.07q.53-.06,1.08-.09a3.85,3.85,0,0,1,.48,0c.47,0,1,0,1.45,0h.16a18.9,18.9,0,0,1,3.69.54c.47.11.92.23,1.37.38a19,19,0,0,1,2.25.87l.37.17c.37.18.73.37,1.09.56s.46.25.67.39l.15.09c.31.19.62.4.91.6l.88.66c.33.26.64.53.95.81A20.69,20.69,0,0,1,50.61,86.21Z" transform="translate(-10.73 -34)"/><path class="cls-4" d="M37.63,81.16,35.84,89h0l0,.1a1.47,1.47,0,0,1-.21,0,.53.53,0,0,1,0-.12l-1.16-.15-.77-.11a.64.64,0,0,1-.23,0c-.77-.14-1.52-.31-2.28-.5a.28.28,0,0,0-.13,0l-1.3-.39-.22-.07c-.51-.17-1-.35-1.49-.56s-.84-.34-1.25-.53a.11.11,0,0,0,0,.05c-.29-.14-.57-.29-.85-.45v0h0l1.66-7.31,1.63.38,6.91,1.56Z" transform="translate(-10.73 -34)"/><path class="cls-5" d="M30.07,73.05a47.88,47.88,0,0,1-.65,4.86c-.07.45-.17.89-.26,1.33a25.77,25.77,0,0,1-2.42,7.35h0a.11.11,0,0,0,0,.05c-.29-.14-.57-.29-.85-.45s-.28-.16-.41-.25h0l-.3-.18a33.39,33.39,0,0,1,.69-8.54A45.43,45.43,0,0,1,27.07,72a21.36,21.36,0,0,1,.9-2.43l.57-.07q.53-.06,1.08-.09a3.85,3.85,0,0,1,.48,0A20.83,20.83,0,0,1,30.07,73.05Z" transform="translate(-10.73 -34)"/><path class="cls-5" d="M40.59,73.86a43.74,43.74,0,0,1-.75,6.86,32.9,32.9,0,0,1-2.5,8.37h-.25a10.94,10.94,0,0,1-1.28,0,1.47,1.47,0,0,1-.21,0,.53.53,0,0,1,0-.12h0a29.68,29.68,0,0,1,.5-8.18c0-.25.09-.5.14-.76a47,47,0,0,1,1.43-5.76A13.49,13.49,0,0,1,39,71.17l.37.17c.37.18.73.37,1.09.56A12.35,12.35,0,0,1,40.59,73.86Z" transform="translate(-10.73 -34)"/><path class="cls-6" d="M22,79.71l-.25,3.53c-.43-.31-.83-.63-1.23-1s-.67-.58-1-.88Z" transform="translate(-10.73 -34)"/><path class="cls-6" d="M44.75,88.43a21,21,0,0,1-2.1.39l-.47.07h-.06l-.43.06L43,85.51Z" transform="translate(-10.73 -34)"/><circle class="cls-7" cx="25.13" cy="26.9" r="9.44"/><path class="cls-8" d="M31.92,50.32a14.88,14.88,0,0,1,2.44.46,10.74,10.74,0,0,0,1.18.58,2.81,2.81,0,0,0,1.29,0,12.51,12.51,0,0,1,2.57-.16A7.52,7.52,0,0,1,42,52v.14a5.27,5.27,0,0,1-2.64.73A6,6,0,0,1,38,52.68a4.1,4.1,0,0,1-1.28-.46,3.11,3.11,0,0,0-1.27-.38,13.08,13.08,0,0,0-1.37.16,2.54,2.54,0,0,1-1.33-.4,1.94,1.94,0,0,1-.94-1.17Z" transform="translate(-10.73 -34)"/><circle class="cls-9" cx="21.5" cy="24.41" r="1.87"/><circle class="cls-9" cx="28.96" cy="24.72" r="1.87"/><circle class="cls-10" cx="21.25" cy="25.38" r="0.93"/><circle class="cls-10" cx="28.72" cy="25.69" r="0.93"/><polygon class="cls-11" points="23.35 28.78 26.8 27.72 26 31.23 23.35 28.78"/></svg>